<svg width="297" height="101" viewBox="0 0 297 101" fill="none" xmlns="http://www.w3.org/2000/svg">
<path d="M16.2962 27.8069C14.2504 27.8069 12.5572 26.1138 12.5572 23.9974V22.657L25.8905 22.5865L25.961 24.5618L36.6841 24.4912V18.7064V11.5812H25.1145V8.12447L14.3209 8.19502L14.3914 11.5812H1.8342V21.4577V24.7029C1.76366 32.3219 7.97173 38.5299 15.6613 38.5299H26.3138V43.186H12.8394V41.2812L2.04584 41.3518L2.11639 53.909H37.0368V27.8069H16.2962ZM64.5951 11.5812V8.12447H55.3535V11.5812H64.5951ZM66.9937 11.5812V43.0449L52.1084 43.186V11.5812H41.3853V43.5387C41.3853 49.253 45.9708 53.909 51.6851 53.909L66.9937 53.7679V53.909H77.7167V11.5812H66.9937ZM96.4875 27.8069C94.4417 27.8069 92.7486 26.1138 92.7486 23.9974V22.657L106.082 22.5865L106.152 24.5618L116.875 24.4912V18.7064V11.5812H105.306V8.12447L94.5122 8.19502L94.5828 11.5812H82.0255V21.4577V24.7029C81.955 32.3219 88.1631 38.5299 95.8526 38.5299H106.505V43.186H93.0308V41.2812L82.2372 41.3518L82.3077 53.909H117.228V27.8069H96.4875ZM154.804 36.7663C152.476 31.5458 151.912 26.396 151.982 22.2337H158.613V11.5107H146.55L146.48 8.12447L135.756 8.19502V11.5107H132.652V4.6677H121.929V53.8385H132.652V22.2337H141.259C141.189 27.5953 141.965 34.2266 144.927 41.0696C147.044 46.0078 150.007 50.3817 153.816 54.1912L161.435 46.6428C158.613 43.8209 156.356 40.5052 154.804 36.7663ZM175.281 22.3043V11.6518H164.488V22.3043H175.281ZM175.352 25.62H164.629V28.0185H160.608V38.1067H164.629V53.8385H175.422L175.352 25.62ZM202.934 11.5107V8.12447L192.14 8.19502L192.211 11.5107H179.794V22.3043H205.332V23.8563C205.332 27.5953 202.299 30.6993 198.489 30.6993H190.588V25.2672H179.865V53.8385H190.588V41.4223H199.054C208.436 41.4223 216.126 33.8033 216.126 24.3501V11.5107H202.934ZM242.27 11.5812V8.12447H233.028V11.5812H242.27ZM244.668 11.5812V43.0449L229.783 43.186V11.5812H219.06V43.5387C219.06 49.253 223.646 53.909 229.36 53.909L244.668 53.7679V53.909H255.391V11.5812H244.668ZM271.975 43.186C272.751 41.7045 273.386 40.1525 273.951 38.6005C275.15 35.0732 276.42 27.5247 276.843 22.2337H294.903V11.5107H283.333V8.12447L272.61 8.19502V11.5107H259.348V22.2337H266.049C265.626 26.5371 264.639 32.604 263.792 35.0026C262.945 37.4717 261.746 39.7998 260.265 41.9162L259.348 43.3271V53.909H295.115V43.186H271.975Z" fill="black"/>
<path d="M33.0928 94.7765C32.8368 94.7765 32.6129 94.7552 32.421 94.7126C32.229 94.6806 32.0584 94.6326 31.9091 94.5686V93.353C32.0798 93.3956 32.261 93.433 32.453 93.465C32.6449 93.497 32.8475 93.5129 33.0608 93.5129C33.3273 93.5129 33.5779 93.4596 33.8125 93.353C34.0578 93.2464 34.2551 93.0598 34.4043 92.7932C34.5536 92.5266 34.6283 92.1534 34.6283 91.6735V80.3172H36.0678V91.5616C36.0678 92.2973 35.9452 92.8998 35.6999 93.369C35.4547 93.8488 35.1081 94.2007 34.6603 94.4247C34.2124 94.6592 33.6899 94.7765 33.0928 94.7765ZM55.3646 91.7375L53.989 88.2027H49.4625L48.1029 91.7375H46.6474L51.1099 80.2692H52.4055L56.8521 91.7375H55.3646ZM52.2776 83.4682C52.2456 83.3829 52.1923 83.2283 52.1176 83.0043C52.043 82.7804 51.9683 82.5512 51.8937 82.3166C51.8297 82.0713 51.7764 81.8847 51.7337 81.7567C51.6804 81.97 51.6218 82.1886 51.5578 82.4125C51.5045 82.6258 51.4458 82.8231 51.3819 83.0043C51.3285 83.1856 51.2806 83.3402 51.2379 83.4682L49.9423 86.9231H53.5571L52.2776 83.4682ZM70.5544 80.3172C72.0473 80.3172 73.1349 80.6104 73.8174 81.1969C74.4998 81.7834 74.841 82.6098 74.841 83.6761C74.841 84.1453 74.761 84.5985 74.6011 85.0357C74.4518 85.4622 74.2012 85.8461 73.8493 86.1873C73.4975 86.5285 73.0283 86.8004 72.4418 87.003C71.8553 87.195 71.1356 87.291 70.2825 87.291H68.9709V91.7375H67.5314V80.3172H70.5544ZM70.4264 81.5488H68.9709V86.0594H70.1225C70.8476 86.0594 71.4501 85.9847 71.93 85.8354C72.4098 85.6755 72.767 85.4249 73.0016 85.0837C73.2362 84.7424 73.3535 84.2946 73.3535 83.7401C73.3535 83.0043 73.1189 82.4552 72.6497 82.0926C72.1805 81.7301 71.4395 81.5488 70.4264 81.5488ZM92.7019 91.7375L91.3263 88.2027H86.7998L85.4402 91.7375H83.9847L88.4473 80.2692H89.7428L94.1894 91.7375H92.7019ZM89.6149 83.4682C89.5829 83.3829 89.5296 83.2283 89.4549 83.0043C89.3803 82.7804 89.3056 82.5512 89.231 82.3166C89.167 82.0713 89.1137 81.8847 89.0711 81.7567C89.0177 81.97 88.9591 82.1886 88.8951 82.4125C88.8418 82.6258 88.7831 82.8231 88.7192 83.0043C88.6659 83.1856 88.6179 83.3402 88.5752 83.4682L87.2796 86.9231H90.8945L89.6149 83.4682ZM113.922 91.7375H112.242L106.132 82.2526H106.068C106.079 82.4445 106.09 82.6578 106.1 82.8924C106.122 83.127 106.138 83.3829 106.148 83.6601C106.159 83.9267 106.17 84.204 106.18 84.4919C106.191 84.7798 106.196 85.0677 106.196 85.3556V91.7375H104.869V80.3172H106.532L112.626 89.7702H112.69C112.68 89.6422 112.669 89.4663 112.658 89.2423C112.648 89.0077 112.637 88.7518 112.626 88.4746C112.616 88.1867 112.605 87.8934 112.594 87.5949C112.584 87.2963 112.578 87.019 112.578 86.7631V80.3172H113.922V91.7375ZM132.52 91.7375H126.138V80.3172H132.52V81.5808H127.578V85.1476H132.232V86.3952H127.578V90.4739H132.52V91.7375ZM150.621 88.6825C150.621 89.365 150.456 89.9461 150.125 90.4259C149.794 90.8951 149.32 91.2577 148.701 91.5136C148.094 91.7695 147.374 91.8975 146.542 91.8975C146.116 91.8975 145.705 91.8761 145.311 91.8335C144.927 91.7908 144.575 91.7322 144.255 91.6575C143.935 91.5722 143.652 91.4709 143.407 91.3536V89.9781C143.791 90.1487 144.266 90.3033 144.831 90.4419C145.406 90.5806 145.998 90.6499 146.606 90.6499C147.171 90.6499 147.646 90.5752 148.03 90.4259C148.414 90.2767 148.701 90.0634 148.893 89.7861C149.085 89.5089 149.181 89.1837 149.181 88.8105C149.181 88.4373 149.101 88.1227 148.941 87.8668C148.781 87.6109 148.504 87.3763 148.11 87.163C147.726 86.9391 147.187 86.7045 146.494 86.4592C146.004 86.2779 145.572 86.086 145.199 85.8834C144.836 85.6701 144.532 85.4302 144.287 85.1636C144.042 84.8971 143.855 84.5932 143.727 84.2519C143.61 83.9107 143.551 83.5162 143.551 83.0683C143.551 82.4605 143.706 81.9433 144.015 81.5168C144.324 81.0796 144.751 80.7437 145.295 80.5091C145.849 80.2746 146.483 80.1573 147.198 80.1573C147.827 80.1573 148.403 80.2159 148.925 80.3332C149.448 80.4505 149.922 80.6051 150.349 80.7971L149.901 82.0287C149.506 81.858 149.075 81.7141 148.605 81.5968C148.147 81.4795 147.667 81.4208 147.166 81.4208C146.686 81.4208 146.286 81.4902 145.966 81.6288C145.646 81.7674 145.406 81.9647 145.247 82.2206C145.087 82.4658 145.007 82.7538 145.007 83.0843C145.007 83.4682 145.087 83.7881 145.247 84.044C145.406 84.2999 145.668 84.5292 146.03 84.7318C146.393 84.9344 146.883 85.153 147.502 85.3876C148.174 85.6328 148.739 85.8994 149.197 86.1873C149.666 86.4646 150.018 86.8004 150.253 87.195C150.498 87.5895 150.621 88.0854 150.621 88.6825ZM168.42 91.7375H162.038V80.3172H168.42V81.5808H163.478V85.1476H168.132V86.3952H163.478V90.4739H168.42V91.7375ZM194.755 91.7375H193.315V80.3172H199.697V81.5808H194.755V85.6275H199.393V86.8911H194.755V91.7375ZM220.691 86.0114C220.691 86.8964 220.579 87.7015 220.355 88.4266C220.131 89.141 219.795 89.7595 219.348 90.282C218.91 90.8045 218.361 91.2044 217.7 91.4816C217.05 91.7588 216.293 91.8975 215.429 91.8975C214.533 91.8975 213.755 91.7588 213.094 91.4816C212.432 91.1937 211.883 90.7938 211.446 90.282C211.009 89.7595 210.684 89.1357 210.47 88.4106C210.257 87.6855 210.151 86.8804 210.151 85.9954C210.151 84.8224 210.343 83.7987 210.726 82.9244C211.11 82.05 211.691 81.3675 212.47 80.877C213.259 80.3865 214.251 80.1413 215.445 80.1413C216.586 80.1413 217.546 80.3865 218.324 80.877C219.102 81.3569 219.689 82.0393 220.083 82.9244C220.489 83.7987 220.691 84.8277 220.691 86.0114ZM211.67 86.0114C211.67 86.9711 211.803 87.7975 212.07 88.4906C212.337 89.1837 212.747 89.7168 213.302 90.0901C213.867 90.4633 214.576 90.6499 215.429 90.6499C216.293 90.6499 216.996 90.4633 217.54 90.0901C218.095 89.7168 218.505 89.1837 218.772 88.4906C219.038 87.7975 219.172 86.9711 219.172 86.0114C219.172 84.5718 218.873 83.4469 218.276 82.6365C217.679 81.8154 216.735 81.4049 215.445 81.4049C214.581 81.4049 213.867 81.5915 213.302 81.9647C212.747 82.3272 212.337 82.8551 212.07 83.5482C211.803 84.2306 211.67 85.0517 211.67 86.0114ZM242.304 86.0114C242.304 86.8964 242.192 87.7015 241.968 88.4266C241.744 89.141 241.408 89.7595 240.961 90.282C240.523 90.8045 239.974 91.2044 239.313 91.4816C238.663 91.7588 237.906 91.8975 237.042 91.8975C236.146 91.8975 235.368 91.7588 234.707 91.4816C234.046 91.1937 233.496 90.7938 233.059 90.282C232.622 89.7595 232.297 89.1357 232.083 88.4106C231.87 87.6855 231.764 86.8804 231.764 85.9954C231.764 84.8224 231.956 83.7987 232.339 82.9244C232.723 82.05 233.304 81.3675 234.083 80.877C234.872 80.3865 235.864 80.1413 237.058 80.1413C238.199 80.1413 239.159 80.3865 239.937 80.877C240.715 81.3569 241.302 82.0393 241.696 82.9244C242.102 83.7987 242.304 84.8277 242.304 86.0114ZM233.283 86.0114C233.283 86.9711 233.416 87.7975 233.683 88.4906C233.95 89.1837 234.36 89.7168 234.915 90.0901C235.48 90.4633 236.189 90.6499 237.042 90.6499C237.906 90.6499 238.609 90.4633 239.153 90.0901C239.708 89.7168 240.118 89.1837 240.385 88.4906C240.651 87.7975 240.785 86.9711 240.785 86.0114C240.785 84.5718 240.486 83.4469 239.889 82.6365C239.292 81.8154 238.348 81.4049 237.058 81.4049C236.194 81.4049 235.48 81.5915 234.915 81.9647C234.36 82.3272 233.95 82.8551 233.683 83.5482C233.416 84.2306 233.283 85.0517 233.283 86.0114ZM263.101 85.9154C263.101 87.195 262.862 88.2666 262.382 89.1304C261.913 89.9941 261.235 90.6445 260.35 91.0817C259.465 91.5189 258.394 91.7375 257.135 91.7375H253.952V80.3172H257.471C258.623 80.3172 259.62 80.5305 260.462 80.957C261.305 81.3835 261.955 82.0127 262.414 82.8444C262.872 83.6655 263.101 84.6891 263.101 85.9154ZM261.582 85.9634C261.582 84.9504 261.411 84.1186 261.07 83.4682C260.74 82.8177 260.249 82.3379 259.599 82.0287C258.959 81.7088 258.18 81.5488 257.263 81.5488H255.392V90.5059H256.943C258.49 90.5059 259.647 90.1274 260.414 89.3703C261.193 88.6025 261.582 87.4669 261.582 85.9634Z" fill="#C02027"/>
</svg>
